<?xml version="1.0" standalone="no"?>
<!DOCTYPE svg PUBLIC "-//W3C//DTD SVG 20010904//EN"
 "http://www.w3.org/TR/2001/REC-SVG-20010904/DTD/svg10.dtd">
<svg version="1.0" xmlns="http://www.w3.org/2000/svg"
 width="600.000000pt" height="600.000000pt" viewBox="0 0 600.000000 600.000000"
 preserveAspectRatio="xMidYMid meet">
<metadata>
Created by potrace 1.14, written by Peter Selinger 2001-2017
</metadata>
<g transform="translate(0.000000,600.000000) scale(0.100000,-0.100000)"
fill="#000000" stroke="none">
<path d="M3418 5835 c-2 -2 -28 -5 -58 -8 -125 -13 -255 -63 -365 -142 -267
-192 -383 -525 -288 -830 22 -71 69 -170 104 -219 79 -110 236 -236 339 -273
42 -15 50 -22 51 -43 0 -14 2 -61 4 -105 1 -44 4 -163 6 -264 l4 -184 -50 -17
c-139 -48 -287 -137 -394 -236 -32 -30 -62 -54 -66 -54 -8 0 -484 165 -520
180 -32 14 -320 118 -440 160 -124 43 -223 78 -783 279 -217 78 -398 144 -404
147 -5 3 -31 6 -58 6 -150 -2 -234 -82 -229 -220 3 -81 18 -133 60 -213 67
-125 163 -191 285 -195 78 -3 107 4 266 65 166 63 232 70 331 37 106 -36 182
-106 284 -261 37 -55 108 -163 159 -241 213 -324 438 -486 708 -509 32 -2 60
-6 61 -7 1 -2 7 -43 14 -91 27 -198 122 -408 246 -546 l33 -36 -152 -102 c-83
-56 -200 -135 -260 -176 l-109 -74 -176 123 c-97 68 -229 160 -294 204 l-118
82 -39 -84 c-99 -212 -135 -373 -134 -598 1 -176 13 -245 68 -381 89 -222 293
-430 557 -569 433 -227 894 -169 1286 162 45 38 98 87 118 110 43 47 49 38
-86 131 -109 74 -224 154 -355 245 l-91 63 39 122 c22 67 63 198 92 290 29 92
56 170 59 173 3 4 34 -3 69 -14 119 -38 184 -47 338 -47 137 0 195 6 285 30
193 51 359 142 499 276 l76 72 73 -49 c39 -27 81 -55 92 -62 11 -7 35 -22 53
-34 33 -20 33 -21 14 -42 -49 -56 -213 -299 -206 -305 5 -4 66 -45 136 -91 71
-47 128 -89 128 -93 0 -5 -24 -41 -53 -80 -120 -163 -157 -215 -157 -223 0 -5
59 -49 130 -97 92 -62 128 -92 123 -101 -5 -7 -27 -39 -51 -72 -24 -32 -90
-124 -147 -203 l-104 -144 22 -17 c74 -57 240 -161 247 -153 9 10 946 1310
977 1356 12 18 22 35 22 39 1 4 -95 71 -211 149 -117 78 -253 170 -303 204
-49 34 -182 124 -295 200 -113 77 -223 152 -246 168 l-40 28 19 72 c11 45 20
117 22 192 3 110 0 153 -20 272 l-7 42 68 32 c257 119 442 202 462 206 12 3
28 1 35 -5 6 -6 40 -20 74 -31 183 -62 400 12 506 171 86 131 96 280 27 423
-105 216 -367 300 -596 190 -113 -54 -208 -174 -228 -286 -8 -44 -11 -47 -96
-84 -36 -15 -121 -55 -188 -87 -68 -32 -125 -58 -127 -58 -2 0 -35 -15 -74
-33 l-71 -34 -80 79 c-133 131 -295 224 -477 276 l-93 26 -1 66 c0 36 -2 85
-4 110 -1 25 -4 118 -6 208 l-4 163 50 21 c83 35 208 123 271 191 205 221 261
535 144 808 -105 248 -344 429 -614 465 -52 6 -164 13 -168 9z m282 -2604
c215 -66 379 -283 375 -496 -2 -94 -14 -144 -52 -224 -127 -267 -460 -376
-733 -240 -211 106 -326 330 -285 559 52 300 388 494 695 401z"/>
</g>
</svg>
